<mxfile host="app.diagrams.net" modified="2020-08-14T17:47:18.936Z" agent="5.0 (Windows NT 6.3; WOW64) AppleWebKit/537.36 (KHTML, like Gecko) Chrome/83.0.4103.116 YaBrowser/20.7.3.101 Yowser/2.5 Safari/537.36" etag="BN7yyr4ZLKPTiybetVrp" version="13.6.2" type="github">
  <diagram id="C5RBs43oDa-KdzZeNtuy" name="Page-1">
    <mxGraphModel dx="1054" dy="609" grid="1" gridSize="10" guides="1" tooltips="1" connect="1" arrows="1" fold="1" page="1" pageScale="1" pageWidth="827" pageHeight="1169" math="0" shadow="0">
      <root>
        <mxCell id="WIyWlLk6GJQsqaUBKTNV-0" />
        <mxCell id="WIyWlLk6GJQsqaUBKTNV-1" parent="WIyWlLk6GJQsqaUBKTNV-0" />
        <mxCell id="WIyWlLk6GJQsqaUBKTNV-2" value="" style="rounded=0;html=1;jettySize=auto;orthogonalLoop=1;fontSize=11;endArrow=block;endFill=0;endSize=8;strokeWidth=1;shadow=0;labelBackgroundColor=none;edgeStyle=orthogonalEdgeStyle;" parent="WIyWlLk6GJQsqaUBKTNV-1" source="WIyWlLk6GJQsqaUBKTNV-3" target="WIyWlLk6GJQsqaUBKTNV-6" edge="1">
          <mxGeometry relative="1" as="geometry" />
        </mxCell>
        <mxCell id="WIyWlLk6GJQsqaUBKTNV-3" value="" style="rounded=1;whiteSpace=wrap;html=1;fontSize=12;glass=0;strokeWidth=1;shadow=0;" parent="WIyWlLk6GJQsqaUBKTNV-1" vertex="1">
          <mxGeometry x="60" y="40" width="120" height="40" as="geometry" />
        </mxCell>
        <mxCell id="WIyWlLk6GJQsqaUBKTNV-4" value="Yes" style="rounded=0;html=1;jettySize=auto;orthogonalLoop=1;fontSize=11;endArrow=block;endFill=0;endSize=8;strokeWidth=1;shadow=0;labelBackgroundColor=none;edgeStyle=orthogonalEdgeStyle;" parent="WIyWlLk6GJQsqaUBKTNV-1" source="WIyWlLk6GJQsqaUBKTNV-6" target="WIyWlLk6GJQsqaUBKTNV-10" edge="1">
          <mxGeometry y="20" relative="1" as="geometry">
            <mxPoint as="offset" />
          </mxGeometry>
        </mxCell>
        <mxCell id="WIyWlLk6GJQsqaUBKTNV-5" value="No" style="edgeStyle=orthogonalEdgeStyle;rounded=0;html=1;jettySize=auto;orthogonalLoop=1;fontSize=11;endArrow=block;endFill=0;endSize=8;strokeWidth=1;shadow=0;labelBackgroundColor=none;" parent="WIyWlLk6GJQsqaUBKTNV-1" source="WIyWlLk6GJQsqaUBKTNV-6" target="WIyWlLk6GJQsqaUBKTNV-12" edge="1">
          <mxGeometry y="10" relative="1" as="geometry">
            <mxPoint as="offset" />
            <mxPoint x="320" y="210" as="targetPoint" />
          </mxGeometry>
        </mxCell>
        <mxCell id="WIyWlLk6GJQsqaUBKTNV-6" value="Одобрена заяка на кредит?" style="rhombus;whiteSpace=wrap;html=1;shadow=0;fontFamily=Helvetica;fontSize=12;align=center;strokeWidth=1;spacing=6;spacingTop=-4;fillColor=#fff2cc;strokeColor=#d6b656;" parent="WIyWlLk6GJQsqaUBKTNV-1" vertex="1">
          <mxGeometry x="347" y="100" width="190" height="80" as="geometry" />
        </mxCell>
        <mxCell id="WIyWlLk6GJQsqaUBKTNV-8" value="No" style="rounded=0;html=1;jettySize=auto;orthogonalLoop=1;fontSize=11;endArrow=block;endFill=0;endSize=8;strokeWidth=1;shadow=0;labelBackgroundColor=none;edgeStyle=orthogonalEdgeStyle;" parent="WIyWlLk6GJQsqaUBKTNV-1" source="d1TPHXevOy9PeGsvlU4c-1" target="WIyWlLk6GJQsqaUBKTNV-11" edge="1">
          <mxGeometry x="0.3333" y="20" relative="1" as="geometry">
            <mxPoint as="offset" />
          </mxGeometry>
        </mxCell>
        <mxCell id="WIyWlLk6GJQsqaUBKTNV-9" value="Да" style="edgeStyle=orthogonalEdgeStyle;rounded=0;html=1;jettySize=auto;orthogonalLoop=1;fontSize=11;endArrow=block;endFill=0;endSize=8;strokeWidth=1;shadow=0;labelBackgroundColor=none;" parent="WIyWlLk6GJQsqaUBKTNV-1" source="WIyWlLk6GJQsqaUBKTNV-10" target="WIyWlLk6GJQsqaUBKTNV-12" edge="1">
          <mxGeometry y="10" relative="1" as="geometry">
            <mxPoint as="offset" />
          </mxGeometry>
        </mxCell>
        <mxCell id="WIyWlLk6GJQsqaUBKTNV-10" value="Количество карт на руках&lt;br&gt;больше или равно двум" style="rhombus;whiteSpace=wrap;html=1;shadow=0;fontFamily=Helvetica;fontSize=12;align=center;strokeWidth=1;spacing=6;spacingTop=-4;fillColor=#fff2cc;strokeColor=#d6b656;" parent="WIyWlLk6GJQsqaUBKTNV-1" vertex="1">
          <mxGeometry x="30" y="200" width="180" height="110" as="geometry" />
        </mxCell>
        <mxCell id="WIyWlLk6GJQsqaUBKTNV-11" value="Рассчитываем максимальную нагрузку по данным&lt;br style=&quot;font-size: 12px&quot;&gt;об клиенте:&lt;br style=&quot;font-size: 12px&quot;&gt;&lt;ul style=&quot;font-size: 12px&quot;&gt;&lt;li style=&quot;font-size: 12px&quot;&gt;&lt;h3 class=&quot;article-render__block article-render__block_h3&quot; style=&quot;text-align: left ; box-sizing: border-box ; line-height: 1.3 ; margin: 34px 0px 6px ; font-family: &amp;#34;ys text fallback&amp;#34; , &amp;#34;arial&amp;#34; , &amp;#34;helvetica&amp;#34; , sans-serif ; background-color: rgb(255 , 255 , 255) ; font-size: 12px&quot;&gt;&lt;span style=&quot;font-weight: normal&quot;&gt;Ежемесячные платежи (действующие кредиты, карты, рассрочки)&lt;/span&gt;&lt;/h3&gt;&lt;/li&gt;&lt;li style=&quot;font-size: 12px&quot;&gt;&lt;div style=&quot;text-align: left&quot;&gt;Иждивенцы&lt;/div&gt;&lt;/li&gt;&lt;li style=&quot;font-size: 12px&quot;&gt;&lt;div style=&quot;text-align: left&quot;&gt;Аренда жилья&lt;/div&gt;&lt;/li&gt;&lt;li style=&quot;font-size: 12px&quot;&gt;&lt;div style=&quot;text-align: left&quot;&gt;Платеж по кредиту, который клиент собирается взять&lt;/div&gt;&lt;/li&gt;&lt;li style=&quot;text-align: left&quot;&gt;&lt;span&gt;Другие обязательные платежи (алименты и прочее)&lt;/span&gt;&lt;/li&gt;&lt;/ul&gt;&lt;span style=&quot;text-align: left&quot;&gt;&lt;span style=&quot;font-size: 13px&quot;&gt;Формула для расчета:&amp;nbsp;&lt;br&gt;&lt;/span&gt;&lt;/span&gt;&lt;img src=&quot;https://avatars.mds.yandex.net/get-zen_doc/1587012/pub_5db81de00ce57b00ad815632_5db81deb3f548700ac215fc8/scale_2400&quot;&gt;&lt;span style=&quot;text-align: left&quot;&gt;&amp;nbsp;&lt;/span&gt;" style="rounded=1;whiteSpace=wrap;html=1;fontSize=12;glass=0;strokeWidth=1;shadow=0;verticalAlign=middle;align=center;" parent="WIyWlLk6GJQsqaUBKTNV-1" vertex="1">
          <mxGeometry x="20" y="800" width="830" height="280" as="geometry" />
        </mxCell>
        <mxCell id="WIyWlLk6GJQsqaUBKTNV-12" value="Кредитная карта не выдается" style="rounded=1;whiteSpace=wrap;html=1;fontSize=12;glass=0;strokeWidth=1;shadow=0;fillColor=#f8cecc;strokeColor=#b85450;" parent="WIyWlLk6GJQsqaUBKTNV-1" vertex="1">
          <mxGeometry x="270" y="210" width="480" height="110" as="geometry" />
        </mxCell>
        <mxCell id="d1TPHXevOy9PeGsvlU4c-17" value="Нет" style="rounded=0;html=1;jettySize=auto;orthogonalLoop=1;fontSize=11;endArrow=block;endFill=0;endSize=8;strokeWidth=1;shadow=0;labelBackgroundColor=none;edgeStyle=orthogonalEdgeStyle;" edge="1" parent="WIyWlLk6GJQsqaUBKTNV-1" source="WIyWlLk6GJQsqaUBKTNV-10" target="d1TPHXevOy9PeGsvlU4c-1">
          <mxGeometry x="0.3333" y="20" relative="1" as="geometry">
            <mxPoint as="offset" />
            <mxPoint x="220" y="355" as="sourcePoint" />
            <mxPoint x="735" y="550" as="targetPoint" />
          </mxGeometry>
        </mxCell>
        <mxCell id="d1TPHXevOy9PeGsvlU4c-92" value="" style="endArrow=classic;html=1;fontSize=12;exitX=1;exitY=0.5;exitDx=0;exitDy=0;entryX=0.86;entryY=0.991;entryDx=0;entryDy=0;entryPerimeter=0;" edge="1" parent="WIyWlLk6GJQsqaUBKTNV-1" source="d1TPHXevOy9PeGsvlU4c-82" target="WIyWlLk6GJQsqaUBKTNV-12">
          <mxGeometry width="50" height="50" relative="1" as="geometry">
            <mxPoint x="430" y="620" as="sourcePoint" />
            <mxPoint x="700" y="623" as="targetPoint" />
          </mxGeometry>
        </mxCell>
        <mxCell id="d1TPHXevOy9PeGsvlU4c-1" value="Расчет дефолта как 3*PD" style="shape=table;html=1;whiteSpace=wrap;startSize=30;container=1;collapsible=0;childLayout=tableLayout;fontStyle=1;align=center;" vertex="1" parent="WIyWlLk6GJQsqaUBKTNV-1">
          <mxGeometry x="140" y="410" width="480" height="260" as="geometry" />
        </mxCell>
        <mxCell id="d1TPHXevOy9PeGsvlU4c-2" value="" style="shape=partialRectangle;html=1;whiteSpace=wrap;collapsible=0;dropTarget=0;pointerEvents=0;fillColor=none;top=0;left=0;bottom=0;right=0;points=[[0,0.5],[1,0.5]];portConstraint=eastwest;" vertex="1" parent="d1TPHXevOy9PeGsvlU4c-1">
          <mxGeometry y="30" width="480" height="37" as="geometry" />
        </mxCell>
        <mxCell id="d1TPHXevOy9PeGsvlU4c-3" value="&lt;font face=&quot;arial&quot;&gt;&lt;span style=&quot;background-color: rgb(255 , 255 , 255)&quot;&gt;Группа&lt;/span&gt;&lt;/font&gt;" style="shape=partialRectangle;html=1;whiteSpace=wrap;connectable=0;fillColor=none;top=0;left=0;bottom=0;right=0;overflow=hidden;" vertex="1" parent="d1TPHXevOy9PeGsvlU4c-2">
          <mxGeometry width="110" height="37" as="geometry" />
        </mxCell>
        <mxCell id="d1TPHXevOy9PeGsvlU4c-4" value="Полученный PD" style="shape=partialRectangle;html=1;whiteSpace=wrap;connectable=0;fillColor=none;top=0;left=0;bottom=0;right=0;overflow=hidden;" vertex="1" parent="d1TPHXevOy9PeGsvlU4c-2">
          <mxGeometry x="110" width="168" height="37" as="geometry" />
        </mxCell>
        <mxCell id="d1TPHXevOy9PeGsvlU4c-5" value="Описание" style="shape=partialRectangle;html=1;whiteSpace=wrap;connectable=0;fillColor=none;top=0;left=0;bottom=0;right=0;overflow=hidden;" vertex="1" parent="d1TPHXevOy9PeGsvlU4c-2">
          <mxGeometry x="278" width="202" height="37" as="geometry" />
        </mxCell>
        <mxCell id="d1TPHXevOy9PeGsvlU4c-82" value="" style="shape=partialRectangle;html=1;whiteSpace=wrap;collapsible=0;dropTarget=0;pointerEvents=0;fillColor=none;top=0;left=0;bottom=0;right=0;points=[[0,0.5],[1,0.5]];portConstraint=eastwest;" vertex="1" parent="d1TPHXevOy9PeGsvlU4c-1">
          <mxGeometry y="67" width="480" height="53" as="geometry" />
        </mxCell>
        <mxCell id="d1TPHXevOy9PeGsvlU4c-83" value="&lt;span style=&quot;color: rgb(0 , 0 , 0) ; font-family: &amp;#34;arial&amp;#34; ; font-size: 12px ; font-style: normal ; font-weight: 400 ; letter-spacing: normal ; text-indent: 0px ; text-transform: none ; word-spacing: 0px ; background-color: rgb(255 , 255 , 255) ; display: inline ; float: none&quot;&gt;А&lt;/span&gt;" style="shape=partialRectangle;html=1;whiteSpace=wrap;connectable=0;fillColor=none;top=0;left=0;bottom=0;right=0;overflow=hidden;" vertex="1" parent="d1TPHXevOy9PeGsvlU4c-82">
          <mxGeometry width="110" height="53" as="geometry" />
        </mxCell>
        <mxCell id="d1TPHXevOy9PeGsvlU4c-84" value="0.01-0.14" style="shape=partialRectangle;html=1;whiteSpace=wrap;connectable=0;fillColor=none;top=0;left=0;bottom=0;right=0;overflow=hidden;" vertex="1" parent="d1TPHXevOy9PeGsvlU4c-82">
          <mxGeometry x="110" width="168" height="53" as="geometry" />
        </mxCell>
        <mxCell id="d1TPHXevOy9PeGsvlU4c-85" value="&lt;span style=&quot;font-family: &amp;#34;arial&amp;#34; ; background-color: rgb(255 , 255 , 255)&quot;&gt;Исключительная и высокая способность к исполнению финансовых обязательств&lt;/span&gt;" style="shape=partialRectangle;html=1;whiteSpace=wrap;connectable=0;fillColor=none;top=0;left=0;bottom=0;right=0;overflow=hidden;" vertex="1" parent="d1TPHXevOy9PeGsvlU4c-82">
          <mxGeometry x="278" width="202" height="53" as="geometry" />
        </mxCell>
        <mxCell id="d1TPHXevOy9PeGsvlU4c-44" value="" style="shape=partialRectangle;html=1;whiteSpace=wrap;collapsible=0;dropTarget=0;pointerEvents=0;fillColor=none;top=0;left=0;bottom=0;right=0;points=[[0,0.5],[1,0.5]];portConstraint=eastwest;" vertex="1" parent="d1TPHXevOy9PeGsvlU4c-1">
          <mxGeometry y="120" width="480" height="66" as="geometry" />
        </mxCell>
        <mxCell id="d1TPHXevOy9PeGsvlU4c-45" value="B" style="shape=partialRectangle;html=1;whiteSpace=wrap;connectable=0;fillColor=none;top=0;left=0;bottom=0;right=0;overflow=hidden;" vertex="1" parent="d1TPHXevOy9PeGsvlU4c-44">
          <mxGeometry width="110" height="66" as="geometry" />
        </mxCell>
        <mxCell id="d1TPHXevOy9PeGsvlU4c-46" value="0.14-4.5" style="shape=partialRectangle;html=1;whiteSpace=wrap;connectable=0;fillColor=none;top=0;left=0;bottom=0;right=0;overflow=hidden;" vertex="1" parent="d1TPHXevOy9PeGsvlU4c-44">
          <mxGeometry x="110" width="168" height="66" as="geometry" />
        </mxCell>
        <mxCell id="d1TPHXevOy9PeGsvlU4c-47" value="&lt;span style=&quot;font-family: &amp;#34;arial&amp;#34; ; background-color: rgb(255 , 255 , 255)&quot;&gt;Вне опасности в краткосрочной перспективе, но имеется существенная неопределенность,&lt;/span&gt;" style="shape=partialRectangle;html=1;whiteSpace=wrap;connectable=0;fillColor=none;top=0;left=0;bottom=0;right=0;overflow=hidden;" vertex="1" parent="d1TPHXevOy9PeGsvlU4c-44">
          <mxGeometry x="278" width="202" height="66" as="geometry" />
        </mxCell>
        <mxCell id="d1TPHXevOy9PeGsvlU4c-6" value="" style="shape=partialRectangle;html=1;whiteSpace=wrap;collapsible=0;dropTarget=0;pointerEvents=0;fillColor=none;top=0;left=0;bottom=0;right=0;points=[[0,0.5],[1,0.5]];portConstraint=eastwest;" vertex="1" parent="d1TPHXevOy9PeGsvlU4c-1">
          <mxGeometry y="186" width="480" height="74" as="geometry" />
        </mxCell>
        <mxCell id="d1TPHXevOy9PeGsvlU4c-7" value="C" style="shape=partialRectangle;html=1;whiteSpace=wrap;connectable=0;fillColor=none;top=0;left=0;bottom=0;right=0;overflow=hidden;" vertex="1" parent="d1TPHXevOy9PeGsvlU4c-6">
          <mxGeometry width="110" height="74" as="geometry" />
        </mxCell>
        <mxCell id="d1TPHXevOy9PeGsvlU4c-8" value="PD &amp;gt;4.5" style="shape=partialRectangle;html=1;whiteSpace=wrap;connectable=0;fillColor=none;top=0;left=0;bottom=0;right=0;overflow=hidden;" vertex="1" parent="d1TPHXevOy9PeGsvlU4c-6">
          <mxGeometry x="110" width="168" height="74" as="geometry" />
        </mxCell>
        <mxCell id="d1TPHXevOy9PeGsvlU4c-9" value="&lt;span style=&quot;color: rgb(0 , 0 , 0) ; font-family: &amp;#34;arial&amp;#34; ; font-size: 12px ; font-style: normal ; font-weight: 400 ; letter-spacing: normal ; text-indent: 0px ; text-transform: none ; word-spacing: 0px ; background-color: rgb(255 , 255 , 255) ; display: inline ; float: none&quot;&gt;&lt;br&gt;Cуществует значительный риск невыполнения обязательств&lt;/span&gt;" style="shape=partialRectangle;html=1;whiteSpace=wrap;connectable=0;fillColor=none;top=0;left=0;bottom=0;right=0;overflow=hidden;" vertex="1" parent="d1TPHXevOy9PeGsvlU4c-6">
          <mxGeometry x="278" width="202" height="74" as="geometry" />
        </mxCell>
      </root>
    </mxGraphModel>
  </diagram>
</mxfile>
